<?xml version="1.0" encoding="UTF-8"?>
<svg id="Layer_1" xmlns="http://www.w3.org/2000/svg" version="1.1" viewBox="0 0 130.47 118.61">
  <!-- Generator: Adobe Illustrator 30.5.0, SVG Export Plug-In . SVG Version: 2.1.4 Build 167)  -->
  <defs>
    <style>
      .st0 {
        fill: #ff4343;
      }

      .st1 {
        fill: #fff;
      }

      .st2 {
        fill: #101010;
      }
    </style>
  </defs>
  <rect class="st1" x="35.58" y="23.72" width="11.86" height="11.86"/>
  <rect class="st1" x="47.45" y="35.58" width="11.86" height="11.86"/>
  <rect class="st1" x="94.89" y="23.72" width="11.86" height="11.86"/>
  <rect class="st2" x="23.72" width="11.86" height="11.86"/>
  <rect class="st2" x="35.58" width="11.86" height="11.86"/>
  <rect class="st2" x="11.86" y="11.86" width="11.86" height="11.86"/>
  <rect class="st2" x="94.89" width="11.86" height="11.86"/>
  <rect class="st2" x="83.03" width="11.86" height="11.86"/>
  <rect class="st2" y="35.58" width="11.86" height="11.86"/>
  <rect class="st2" y="23.72" width="11.86" height="11.86"/>
  <rect class="st2" y="47.45" width="11.86" height="11.86"/>
  <rect class="st2" x="71.17" y="11.86" width="11.86" height="11.86"/>
  <rect class="st2" x="59.31" y="23.72" width="11.86" height="11.86"/>
  <rect class="st2" x="47.45" y="11.86" width="11.86" height="11.86"/>
  <rect class="st2" x="106.75" y="11.86" width="11.86" height="11.86"/>
  <rect class="st2" x="118.61" y="35.58" width="11.86" height="11.86"/>
  <rect class="st2" x="118.61" y="23.72" width="11.86" height="11.86"/>
  <rect class="st2" x="118.61" y="47.45" width="11.86" height="11.86"/>
  <g>
    <polygon class="st0" points="23.72 11.86 23.72 23.72 11.86 23.72 11.86 35.58 11.86 47.44 23.72 47.44 35.58 47.44 47.44 47.44 47.44 35.58 35.58 35.58 35.58 23.72 47.44 23.72 47.44 11.86 35.58 11.86 23.72 11.86"/>
    <polygon class="st0" points="23.72 47.45 11.86 47.45 11.86 59.31 23.72 59.31 23.72 71.17 35.58 71.17 35.58 83.03 47.44 83.03 47.44 71.17 47.44 59.31 47.44 47.45 35.58 47.45 23.72 47.45"/>
    <rect class="st0" x="47.45" y="23.72" width="11.86" height="11.86"/>
    <polygon class="st0" points="94.89 47.45 83.03 47.45 71.17 47.45 59.31 47.45 47.45 47.45 47.45 59.31 47.45 71.17 47.45 83.03 47.45 94.89 59.31 94.89 59.31 106.75 71.17 106.75 71.17 94.89 83.03 94.89 83.03 83.03 94.89 83.03 94.89 71.17 106.75 71.17 106.75 59.31 118.61 59.31 118.61 47.45 106.75 47.45 94.89 47.45"/>
    <polygon class="st0" points="106.75 23.72 106.75 35.58 94.89 35.58 94.89 23.72 106.75 23.72 106.75 11.86 94.89 11.86 83.03 11.86 83.03 23.72 71.17 23.72 71.17 35.58 59.31 35.58 59.31 47.44 71.17 47.44 83.03 47.44 94.89 47.44 106.75 47.44 118.61 47.44 118.61 35.58 118.61 23.72 106.75 23.72"/>
  </g>
  <rect class="st2" x="23.72" y="71.17" width="11.86" height="11.86"/>
  <rect class="st2" x="35.58" y="83.03" width="11.86" height="11.86"/>
  <rect class="st2" x="47.45" y="94.89" width="11.86" height="11.86"/>
  <rect class="st2" x="11.86" y="59.31" width="11.86" height="11.86"/>
  <rect class="st2" x="94.89" y="71.17" width="11.86" height="11.86"/>
  <rect class="st2" x="83.03" y="83.03" width="11.86" height="11.86"/>
  <rect class="st2" x="71.17" y="94.89" width="11.86" height="11.86"/>
  <rect class="st2" x="106.75" y="59.31" width="11.86" height="11.86"/>
  <rect class="st2" x="59.31" y="106.75" width="11.86" height="11.86"/>
</svg>