<?xml version="1.0" encoding="UTF-8"?>
<svg id="Layer_1" xmlns="http://www.w3.org/2000/svg" version="1.1" viewBox="0 0 109.05 132.85">
  <!-- Generator: Adobe Illustrator 30.5.0, SVG Export Plug-In . SVG Version: 2.1.4 Build 167)  -->
  <polygon points="15.45 54.66 11.76 54.75 11.75 66.34 7.71 66.55 7.63 77.74 11.69 78.18 11.78 89.55 15.45 90.01 15.45 105.56 11.76 105.33 11.74 97.87 7.72 97.66 7.64 90.13 4.04 89.84 3.93 82.24 0 81.99 .04 58.7 3.95 58.29 3.96 50.97 7.67 50.55 7.66 39.52 11.6 38.8 11.83 35.02 15.45 34.97 15.44 27.51 19.35 27.13 19.58 23.54 23.1 23.46 23.37 19.45 30.88 19.37 31.17 15.75 38.75 15.65 38.88 11.79 54.28 11.68 54.37 .31 58.32 0 58.4 3.72 62.33 3.93 62.52 7.87 66.12 7.85 66.19 11.61 70.02 11.81 70.22 15.66 73.91 15.7 73.92 19.35 77.73 19.44 77.84 23.44 73.91 23.55 73.91 27.19 70.21 27.24 70.02 31.15 66.18 31.36 66.12 34.97 62.54 35.01 62.31 38.95 58.4 39.17 58.32 42.99 54.53 42.99 54.37 31.29 42.87 31.27 42.77 35.01 31.46 35 31.04 39.08 23.5 39.11 23.09 43.13 19.53 43.16 19.47 46.77 15.49 47.11 15.45 54.66"/>
  <polygon points="38.84 117.2 35.07 117.13 35.05 113.49 31.22 113.4 31.25 109.38 35.04 109.3 35.06 105.64 38.76 105.6 38.96 101.69 42.79 101.49 42.84 97.93 46.67 97.59 46.62 93.9 50.53 93.66 50.75 89.8 54.39 89.78 54.62 101.55 66.09 101.56 66.2 97.79 77.59 97.86 77.83 93.84 85.6 93.62 85.84 89.79 89.44 89.66 89.5 86 93.46 85.72 93.55 78.17 97.21 78.07 97.21 66.55 101.28 66.32 101.29 54.92 97.22 54.62 97.23 43.25 93.57 42.98 93.49 27.34 97.21 27.45 97.23 34.94 101.25 35.16 101.34 42.72 104.93 43 105.04 50.61 109.01 50.84 109.05 74.08 105 74.56 105.01 81.88 101.4 82.19 101.24 93.46 97.37 93.99 97.14 97.82 93.55 97.85 93.47 105.5 89.5 105.69 89.45 109.31 85.86 109.37 85.62 113.38 78.09 113.48 77.79 117.05 70.13 117.27 70.02 121.1 54.66 121.15 54.49 132.55 50.64 132.85 50.57 129.12 46.65 128.92 46.45 124.97 42.85 124.92 42.79 121.25 38.93 121.05 38.84 117.2"/>
</svg>