<?xml version="1.0" encoding="UTF-8"?>
<svg id="memory-rotate-counterclockwise" xmlns="http://www.w3.org/2000/svg" version="1.1" viewBox="0 0 130 110">
  <!-- Generator: Adobe Illustrator 30.5.0, SVG Export Plug-In . SVG Version: 2.1.4 Build 167)  -->
  <path d="M0,55v6.88h6.84v6.88h6.84v6.88h6.84v6.88h13.68v-6.88h6.84v-6.88h6.84v-6.88h6.84v-6.88h-20.53v-13.75h6.84v-13.75h6.84v-6.88h13.68v-6.88h27.37v6.88h13.68v6.88h6.84v13.75h6.84v27.5h-6.84v13.75h-6.84v6.88h-13.68v6.87h-27.37v-6.87h-20.53v13.75h13.68v6.88h41.05v-6.88h13.68v-6.88h6.84v-6.87h6.84v-13.75h6.84v-41.25h-6.84v-13.75h-6.84v-6.88h-6.84v-6.88h-13.68V0h-41.05v6.88h-13.68v6.88h-6.84v6.88h-6.84v13.75h-6.84v20.62H0Z"/>
</svg>